<svg xmlns="http://www.w3.org/2000/svg" width="900" height="420" viewBox="0 0 900 420">
  <rect width="900" height="420" fill="#ffffff"/>
  <text x="40" y="35" font-family="Arial" font-size="20" font-weight="700">Stage27 M3W Evidence vs Stage26 Selector</text>
  <text x="40" y="62" font-family="Arial" font-size="13">Pixel-space SDD raw-frame benchmark. Not metric, not true 3D, not Stage5C.</text>
  <line x1="80" y1="340" x2="850" y2="340" stroke="#222" stroke-width="1"/>
  <line x1="80" y1="90" x2="80" y2="340" stroke="#222" stroke-width="1"/>
  <text x="20" y="95" font-family="Arial" font-size="11">0.16</text>
  <text x="20" y="173" font-family="Arial" font-size="11">0.10</text>
  <text x="20" y="238" font-family="Arial" font-size="11">0.05</text>
  <text x="30" y="344" font-family="Arial" font-size="11">0</text>
  <line x1="80" y1="184" x2="850" y2="184" stroke="#111" stroke-dasharray="4 4" stroke-width="1"/>
  <line x1="80" y1="254" x2="850" y2="254" stroke="#777" stroke-dasharray="5 5" stroke-width="1"/>
  <text x="760" y="179" font-family="Arial" font-size="11">hard gate 10%</text>
  <text x="760" y="249" font-family="Arial" font-size="11">t+50 gate 5%</text>
  <g font-family="Arial" font-size="12">
    <text x="115" y="365">Stage26</text>
    <text x="260" y="365">M3W medium</text>
    <text x="470" y="365">M3W hard-focus</text>
    <text x="690" y="365">M3W small</text>
  </g>
  <rect x="120" y="111" width="42" height="229" fill="#3366cc"/>
  <rect x="168" y="164" width="42" height="176" fill="#dc3912"/>
  <rect x="310" y="136" width="42" height="204" fill="#3366cc"/>
  <rect x="358" y="180" width="42" height="160" fill="#dc3912"/>
  <rect x="510" y="295" width="42" height="45" fill="#3366cc"/>
  <rect x="558" y="272" width="42" height="68" fill="#dc3912"/>
  <rect x="710" y="340" width="42" height="0" fill="#3366cc"/>
  <rect x="758" y="340" width="42" height="0" fill="#dc3912"/>
  <text x="115" y="104" font-family="Arial" font-size="11">14.58%</text>
  <text x="165" y="157" font-family="Arial" font-size="11">11.23%</text>
  <text x="304" y="129" font-family="Arial" font-size="11">13.08%</text>
  <text x="354" y="173" font-family="Arial" font-size="11">10.24%</text>
  <text x="504" y="288" font-family="Arial" font-size="11">2.88%</text>
  <text x="554" y="265" font-family="Arial" font-size="11">4.31%</text>
  <text x="690" y="330" font-family="Arial" font-size="11">-0.35%</text>
  <text x="748" y="330" font-family="Arial" font-size="11">-0.82%</text>
  <rect x="80" y="385" width="14" height="14" fill="#3366cc"/>
  <text x="100" y="397" font-family="Arial" font-size="12">t+50 improvement</text>
  <rect x="250" y="385" width="14" height="14" fill="#dc3912"/>
  <text x="270" y="397" font-family="Arial" font-size="12">hard/failure improvement</text>
</svg>
